<svg width="72" height="72" viewBox="0 0 72 72" fill="none" xmlns="http://www.w3.org/2000/svg">
<path d="M6 36C6 21.8579 6 14.7868 10.3934 10.3934C14.7868 6 21.8579 6 36 6C50.1421 6 57.2132 6 61.6066 10.3934C66 14.7868 66 21.8579 66 36C66 50.1421 66 57.2132 61.6066 61.6066C57.2132 66 50.1421 66 36 66C21.8579 66 14.7868 66 10.3934 61.6066C6 57.2132 6 50.1421 6 36Z" fill="#747EEF" fill-opacity="0.1" stroke="#747EEF" stroke-width="2"/>
<path d="M31.5625 20.5C30.1128 20.5 28.9375 21.6753 28.9375 23.125V24.875C28.9375 26.3247 30.1128 27.5 31.5625 27.5H40.3125C41.7622 27.5 42.9375 26.3247 42.9375 24.875V23.125C42.9375 21.6753 41.7622 20.5 40.3125 20.5H31.5625Z" fill="#747EEF"/>
<path fill-rule="evenodd" clip-rule="evenodd" d="M26.3125 24.0641C24.1112 24.1876 22.7215 24.5384 21.7252 25.5346C20.1875 27.0723 20.1875 29.5472 20.1875 34.497V44.997C20.1875 49.9467 20.1875 52.4216 21.7252 53.9593C23.2629 55.497 25.7378 55.497 30.6875 55.497H41.1875C46.1372 55.497 48.6121 55.497 50.1498 53.9593C51.6875 52.4216 51.6875 49.9467 51.6875 44.997V34.497C51.6875 29.5472 51.6875 27.0723 50.1498 25.5346C49.1535 24.5384 47.7638 24.1876 45.5625 24.0641V24.875C45.5625 27.7745 43.212 30.125 40.3125 30.125H31.5625C28.663 30.125 26.3125 27.7745 26.3125 24.875V24.0641ZM27.1875 34.0625C26.4626 34.0625 25.875 34.6501 25.875 35.375C25.875 36.0999 26.4626 36.6875 27.1875 36.6875H28.0625C28.7874 36.6875 29.375 36.0999 29.375 35.375C29.375 34.6501 28.7874 34.0625 28.0625 34.0625H27.1875ZM33.3125 34.0625C32.5876 34.0625 32 34.6501 32 35.375C32 36.0999 32.5876 36.6875 33.3125 36.6875H44.6875C45.4124 36.6875 46 36.0999 46 35.375C46 34.6501 45.4124 34.0625 44.6875 34.0625H33.3125ZM27.1875 40.1875C26.4626 40.1875 25.875 40.7751 25.875 41.5C25.875 42.2249 26.4626 42.8125 27.1875 42.8125H28.0625C28.7874 42.8125 29.375 42.2249 29.375 41.5C29.375 40.7751 28.7874 40.1875 28.0625 40.1875H27.1875ZM33.3125 40.1875C32.5876 40.1875 32 40.7751 32 41.5C32 42.2249 32.5876 42.8125 33.3125 42.8125H44.6875C45.4124 42.8125 46 42.2249 46 41.5C46 40.7751 45.4124 40.1875 44.6875 40.1875H33.3125ZM27.1875 46.3125C26.4626 46.3125 25.875 46.9001 25.875 47.625C25.875 48.3499 26.4626 48.9375 27.1875 48.9375H28.0625C28.7874 48.9375 29.375 48.3499 29.375 47.625C29.375 46.9001 28.7874 46.3125 28.0625 46.3125H27.1875ZM33.3125 46.3125C32.5876 46.3125 32 46.9001 32 47.625C32 48.3499 32.5876 48.9375 33.3125 48.9375H44.6875C45.4124 48.9375 46 48.3499 46 47.625C46 46.9001 45.4124 46.3125 44.6875 46.3125H33.3125Z" fill="#747EEF"/>
</svg>
