<svg width="211" height="50" viewBox="0 0 211 50" fill="none" xmlns="http://www.w3.org/2000/svg">
<g clip-path="url(#clip0_4710_2642)">
<path d="M2.82097 23.5971C3.59786 23.5971 4.37475 23.5971 5.15164 23.5971C5.64194 23.5971 5.66611 23.6302 5.73344 24.1035C5.81976 24.7175 5.93543 25.3266 6.01312 25.9406C6.09599 26.5827 6.13569 27.2281 6.21684 27.8703C6.30488 28.5654 6.41883 29.2571 6.52069 29.9506C6.52587 29.9919 6.5345 30.0317 6.53795 30.073C6.59838 30.7731 6.65189 31.4731 6.72268 32.1732C6.79346 32.8716 6.87978 33.5683 6.96265 34.2651C7.0576 35.071 7.15428 35.8787 7.25442 36.6846C7.35627 37.5022 7.47194 38.3198 7.56862 39.139C7.69983 40.261 7.80342 41.3848 7.94844 42.5052C8.03476 43.1721 8.16424 43.8358 8.30408 44.4961C8.39385 44.9231 8.94113 45.3368 9.45388 45.3666C9.89757 45.3931 10.3464 45.3948 10.7901 45.3633C11.3305 45.3269 11.6741 44.9843 11.9054 44.554C12.0539 44.276 12.1523 43.9682 12.23 43.662C12.3802 43.0761 12.4889 42.482 12.6322 41.8961C12.779 41.2971 12.9482 40.7046 13.1018 40.1071C13.1778 39.8159 13.2347 39.5196 13.3072 39.2267C13.4972 38.4538 13.694 37.6809 13.8804 36.9064C13.9875 36.4662 14.0772 36.0227 14.1791 35.5824C14.2585 35.2349 14.3448 34.889 14.426 34.5415C14.5762 33.9026 14.7229 33.2622 14.8748 32.6233C14.9318 32.3834 14.9957 32.1434 15.0596 31.9051C15.2616 31.1488 15.4687 30.3941 15.6638 29.6361C15.7536 29.2919 15.8313 28.9443 15.8952 28.5951C16.0315 27.8454 16.2801 27.1222 16.6306 26.452C17.3747 25.027 18.5487 24.0489 20.1456 23.5392C21.3386 23.1586 22.566 23.0642 23.8004 23.1073C24.7431 23.1404 25.6909 23.2314 26.5886 23.564C27.1566 23.7742 27.6745 24.0671 28.1545 24.4196C28.7501 24.8582 29.2352 25.3862 29.5995 26.025C30.0017 26.7316 30.2918 27.4731 30.4834 28.2509C30.644 28.9046 30.7683 29.5666 30.9133 30.2236C30.9495 30.3842 31.0169 30.5397 31.0531 30.7003C31.2413 31.5476 31.4157 32.3966 31.6125 33.2406C31.7402 33.7901 31.9025 34.3329 32.0355 34.8807C32.1252 35.2547 32.1822 35.637 32.2703 36.0127C32.4826 36.9246 32.7122 37.8315 32.9211 38.7434C33.0748 39.4137 33.2008 40.0889 33.351 40.7592C33.4787 41.3235 33.6255 41.8829 33.7602 42.4456C33.9017 43.0331 34.0433 43.6206 34.1779 44.2081C34.3092 44.7791 34.8461 45.2922 35.4538 45.3468C35.9234 45.3881 36.4033 45.3848 36.8746 45.3534C37.27 45.3269 37.5963 45.1118 37.7516 44.7626C37.964 44.2876 38.1332 43.7994 38.1763 43.2665C38.235 42.5449 38.3731 41.8283 38.4767 41.11C38.4802 41.0836 38.4888 41.0554 38.4923 41.0289C38.5579 40.4149 38.6114 39.7993 38.6925 39.1853C38.7702 38.6011 38.8738 38.0202 38.9688 37.4377C38.9774 37.383 39.0016 37.3317 39.0067 37.2771C39.0775 36.678 39.1345 36.0756 39.2174 35.4782C39.302 34.8708 39.409 34.2651 39.5057 33.6577C39.5126 33.6163 39.5195 33.5766 39.5247 33.5352C39.5955 32.9361 39.6248 32.3304 39.7474 31.7412C39.8613 31.1968 39.8717 30.649 39.9304 30.1028C39.9718 29.7122 40.0944 29.3283 40.1824 28.941C40.1945 28.8864 40.2152 28.8351 40.2204 28.7805C40.286 28.1516 40.3395 27.5227 40.4155 26.8955C40.4777 26.3775 40.564 25.8644 40.6382 25.3481C40.6796 25.0634 40.7211 24.7788 40.7573 24.4941C40.7746 24.3568 40.766 24.2177 40.7936 24.082C40.873 23.6832 40.9818 23.5955 41.3996 23.5955C42.9672 23.5938 44.5365 23.5955 46.1041 23.5955C46.1334 23.5955 46.161 23.5955 46.1904 23.5955C46.5754 23.6104 46.6358 23.6666 46.6064 24.0489C46.5857 24.3088 46.5357 24.5686 46.5011 24.8268C46.3578 25.9042 46.2232 26.9815 46.073 28.0573C46.0022 28.5604 45.8986 29.0602 45.8209 29.5633C45.7312 30.1492 45.6569 30.735 45.5706 31.3209C45.4998 31.7959 45.4169 32.2708 45.3462 32.7458C45.2995 33.0586 45.2737 33.3747 45.2236 33.6858C45.1442 34.1741 45.0509 34.6606 44.9681 35.1488C44.9387 35.3259 44.9215 35.5046 44.8938 35.6817C44.7851 36.4016 44.6677 37.1216 44.5675 37.8431C44.4916 38.3893 44.4467 38.9387 44.3673 39.4832C44.2896 40.0144 44.186 40.5407 44.0928 41.0687C44.0807 41.1365 44.0548 41.2027 44.0462 41.2706C43.9771 41.8581 43.9201 42.4473 43.839 43.0348C43.6577 44.3587 43.4626 45.6877 42.7531 46.866C42.0988 47.9517 41.1855 48.799 39.9632 49.2972C39.5575 49.4627 39.1483 49.6182 38.6977 49.6695C38.3317 49.7109 37.9761 49.835 37.6135 49.9095C37.4461 49.9443 37.2734 49.9641 37.1008 49.9658C36.4965 49.9741 35.8871 50.0221 35.2898 49.9608C34.6096 49.8913 33.9259 49.7705 33.2698 49.5851C32.4722 49.3601 31.7213 49.0208 31.0894 48.468C30.5645 48.008 30.1295 47.485 29.7842 46.8925C29.3474 46.1445 29.1264 45.317 28.8796 44.5011C28.7812 44.1734 28.7535 43.8258 28.6741 43.4915C28.5222 42.8527 28.3547 42.2172 28.1976 41.58C28.1251 41.2871 28.0336 40.9942 28.006 40.6963C27.9594 40.1998 27.7867 39.7381 27.6676 39.2598C27.5105 38.6342 27.4121 37.997 27.274 37.3665C27.2015 37.0338 27.0944 36.7062 27.0081 36.3768C26.9322 36.0855 26.8545 35.7926 26.7923 35.498C26.5489 34.371 26.3227 33.2423 26.0689 32.1169C25.9343 31.5162 25.7478 30.9253 25.6045 30.3262C25.5148 29.9539 25.4647 29.5732 25.3939 29.1959C25.2316 28.3287 24.7241 27.6833 23.6399 27.6369C23.3809 27.6253 23.1219 27.6419 22.863 27.6369C22.333 27.6237 21.929 27.8736 21.5751 28.2112C21.4888 28.2939 21.4301 28.4181 21.3973 28.5339C21.2229 29.1429 21.052 29.752 20.8931 30.366C20.6653 31.2464 20.4443 32.1302 20.2319 33.0139C20.0351 33.8298 19.8607 34.6507 19.6587 35.4666C19.4706 36.2279 19.2565 36.9842 19.0597 37.7438C18.9803 38.0517 18.9198 38.3628 18.8439 38.6706C18.6212 39.5792 18.3933 40.4861 18.174 41.3947C18.0929 41.729 18.0359 42.0666 17.9548 42.4009C17.7787 43.1374 17.6043 43.8755 17.4144 44.6086C17.2228 45.3435 16.9897 46.065 16.6082 46.7369C16.1403 47.5595 15.5153 48.2446 14.7212 48.7924C14.2136 49.1416 13.637 49.3518 13.0725 49.5818C12.8135 49.6878 12.5217 49.7225 12.2403 49.7689C11.7759 49.845 11.3098 49.9244 10.8419 49.9658C10.4569 49.9989 10.0633 49.9559 9.67831 49.984C9.06543 50.0287 8.47327 49.8979 7.88801 49.7837C7.34764 49.6778 6.80727 49.5487 6.28589 49.3369C5.27939 48.9281 4.51804 48.2496 3.91207 47.4221C3.58059 46.9703 3.39759 46.4175 3.15071 45.9078C3.03677 45.6711 2.97117 45.4279 2.93836 45.1614C2.87794 44.6748 2.74846 44.1949 2.64833 43.7133C2.63969 43.6736 2.62761 43.6322 2.62243 43.5925C2.5551 42.9371 2.50503 42.2784 2.41698 41.6247C2.35829 41.1928 2.24607 40.7675 2.1563 40.3388C2.14594 40.2859 2.11486 40.2329 2.11659 40.1799C2.12695 39.4617 2.02854 38.7534 1.9146 38.0467C1.88352 37.858 1.84554 37.671 1.80756 37.4823C1.78857 37.388 1.75922 37.2953 1.74713 37.201C1.69707 36.8485 1.65045 36.496 1.60729 36.1418C1.53133 35.5162 1.48299 34.8857 1.37941 34.2651C1.28963 33.7338 1.2482 33.2026 1.19641 32.6697C1.14289 32.1285 0.987508 31.5973 0.899461 31.0577C0.825225 30.6109 0.780338 30.1591 0.728545 29.7073C0.659489 29.1065 0.60597 28.5041 0.526554 27.905C0.438507 27.2397 0.319384 26.5777 0.227883 25.9124C0.141562 25.2869 0.0604206 24.6596 0.00690155 24.0324C-0.0259004 23.6584 0.0483357 23.6021 0.445412 23.5988C1.23611 23.5938 2.02854 23.5988 2.81924 23.5988V23.5955L2.82097 23.5971Z" fill="white"/>
<path d="M89.8324 49.5834C89.8203 49.4278 89.7961 49.2541 89.7961 49.082C89.7927 47.8275 89.7961 46.5714 89.7961 45.3169C89.7961 44.7608 89.822 44.7294 90.3987 44.731C94.6284 44.731 98.8581 44.7327 103.088 44.7343C103.937 44.7343 104.787 44.7559 105.634 44.7261C106.403 44.6996 107.131 44.5076 107.742 44.0277C108.186 43.6785 108.469 43.2399 108.638 42.702C108.788 42.2238 108.785 41.7488 108.764 41.2705C108.719 40.213 107.894 39.2448 106.846 38.9088C106.075 38.6606 105.298 38.5646 104.485 38.5712C102.211 38.5911 99.9389 38.5679 97.6652 38.5812C96.7364 38.5861 95.8455 38.4008 94.9547 38.1906C94.2986 38.0367 93.6478 37.8646 93.0522 37.5534C91.6158 36.8054 90.561 35.7396 89.9515 34.2551C89.6529 33.5269 89.4854 32.7954 89.4267 32.0258C89.4025 31.713 89.3007 31.4036 89.2972 31.0908C89.2886 30.3328 89.4509 29.5914 89.5769 28.845C89.6926 28.1631 89.9671 27.5524 90.2795 26.9533C90.7146 26.1176 91.3586 25.4357 92.1493 24.883C92.7449 24.4659 93.4044 24.1862 94.0949 23.9429C94.7492 23.7129 95.426 23.6368 96.0941 23.4928C96.8244 23.3356 97.553 23.3736 98.2815 23.372C102.511 23.3654 106.741 23.367 110.971 23.3687C111.708 23.3687 111.706 23.3703 111.704 24.0687C111.703 25.2553 111.704 26.4403 111.704 27.6269C111.704 27.7229 111.704 27.8205 111.694 27.9165C111.679 28.0605 111.59 28.1399 111.439 28.1466C111.338 28.1515 111.237 28.1499 111.136 28.1499C106.634 28.1499 102.13 28.1499 97.6272 28.1582C96.9332 28.1582 96.2564 28.3005 95.6522 28.6447C94.915 29.0667 94.5058 29.7022 94.4212 30.5264C94.3591 31.1338 94.3435 31.7345 94.5783 32.3188C94.77 32.7954 95.0807 33.1876 95.5296 33.4524C96.0751 33.7735 96.669 33.9654 97.3216 33.9688C99.7956 33.982 102.27 33.9803 104.743 34.035C106.004 34.0631 107.255 34.1872 108.485 34.5414C109.365 34.7946 110.183 35.1405 110.924 35.6386C111.511 36.0325 112.013 36.529 112.419 37.1049C112.882 37.762 113.17 38.4868 113.419 39.2398C113.652 39.9482 113.717 40.6664 113.755 41.393C113.804 42.3197 113.747 43.2416 113.512 44.1435C113.262 45.1117 112.852 46.0087 112.202 46.8047C111.496 47.6686 110.608 48.3124 109.583 48.7493C108.925 49.029 108.212 49.2077 107.492 49.3517C106.52 49.547 105.546 49.504 104.573 49.5106C100.56 49.5387 96.5464 49.552 92.5342 49.5652C92.0888 49.5652 91.6434 49.5172 91.198 49.5189C90.7595 49.5189 90.3192 49.5569 89.8289 49.5801L89.8324 49.5834Z" fill="white"/>
<path d="M147.088 49.5972C146.109 49.5741 145.118 49.5476 144.129 49.5294C143.611 49.5194 143.093 49.5178 142.575 49.5261C142.176 49.531 142.131 49.5029 142.123 49.114C142.117 48.8657 142.123 48.6175 142.123 48.3692C142.123 45.3638 142.123 42.3567 142.123 39.3513C142.123 38.7423 142.123 38.7357 141.475 38.7357C137.347 38.7357 133.218 38.7357 129.09 38.7357C128.658 38.7357 128.615 38.7853 128.615 39.2768C128.615 42.2823 128.615 45.2893 128.615 48.2948C128.615 48.5844 128.62 48.874 128.612 49.1636C128.608 49.2944 128.582 49.4235 128.567 49.5376H123.653C123.643 49.3688 123.626 49.2232 123.626 49.0776C123.626 48.2782 123.626 47.4772 123.626 46.6779C123.626 39.1345 123.624 31.5911 123.626 24.0494C123.626 23.3097 123.579 23.3759 124.325 23.3709C125.577 23.3643 126.828 23.3676 128.08 23.3725C128.606 23.3742 128.612 23.3808 128.612 23.8823C128.612 26.9986 128.612 30.1149 128.612 33.2312C128.612 33.9131 128.651 33.9495 129.371 33.9495C133.442 33.9495 137.513 33.9495 141.584 33.9511C142.064 33.9511 142.119 33.9015 142.119 33.4182C142.119 30.2738 142.119 27.1293 142.119 23.9865C142.119 23.3941 142.131 23.3742 142.736 23.3725C144.03 23.3692 145.325 23.3709 146.62 23.3692C146.72 23.3692 146.822 23.3725 146.922 23.3742C147.131 23.3808 147.235 23.4768 147.233 23.6853C147.229 24.387 147.235 25.0904 147.233 25.7921C147.233 26.0404 147.205 26.287 147.205 26.5352C147.205 33.127 147.202 39.7187 147.205 46.3105C147.205 47.2058 147.235 48.1028 147.245 48.9981C147.247 49.2017 147.269 49.4152 147.086 49.5956L147.088 49.5972Z" fill="white"/>
<path d="M180.823 49.5872C180.823 49.468 180.797 49.3671 180.828 49.2876C180.971 48.9136 181.132 48.5478 181.284 48.1771C181.624 47.348 181.959 46.5189 182.3 45.6897C182.675 44.7828 183.06 43.8775 183.435 42.9706C183.92 41.7972 184.4 40.6222 184.883 39.4472C185.228 38.6064 185.577 37.7674 185.922 36.9266C186.254 36.1207 186.579 35.313 186.91 34.5071C187.252 33.6779 187.595 32.8488 187.941 32.0196C188.46 30.7718 188.985 29.5239 189.503 28.2744C189.814 27.5231 190.095 26.7585 190.428 26.0154C190.9 24.9645 191.616 24.1188 192.707 23.5859C193.318 23.288 193.955 23.1176 194.625 23.0034C195.166 22.9123 195.704 22.866 196.253 22.8693C196.902 22.8726 197.526 23.0166 198.156 23.1407C198.672 23.2433 199.147 23.4121 199.594 23.6687C200.051 23.9318 200.481 24.228 200.802 24.6434C201.023 24.9297 201.279 25.2028 201.436 25.5189C201.709 26.0617 201.921 26.6327 202.151 27.1954C202.574 28.2347 202.99 29.2757 203.408 30.3167C203.675 30.9836 203.939 31.6522 204.204 32.3208C204.468 32.9895 204.727 33.6597 204.991 34.33C205.552 35.7566 206.111 37.1832 206.676 38.6097C207.097 39.6739 207.525 40.7364 207.946 41.8005C208.328 42.7637 208.704 43.7286 209.086 44.6918C209.538 45.8354 209.99 46.9773 210.446 48.1192C210.59 48.4783 210.747 48.8308 210.892 49.1883C210.997 49.4482 210.924 49.5276 210.624 49.5259C209.027 49.521 207.432 49.5193 205.835 49.5177C205.54 49.5177 205.421 49.4448 205.317 49.18C204.74 47.7022 204.169 46.2226 203.587 44.7464C203.207 43.7848 202.802 42.8316 202.425 41.8684C202.049 40.9052 201.704 39.9321 201.331 38.9689C200.946 37.9775 200.537 36.9961 200.15 36.0065C199.829 35.1856 199.528 34.3548 199.207 33.5339C198.936 32.8389 198.643 32.152 198.366 31.4603C198.085 30.7552 197.812 30.0469 197.533 29.3419C197.41 29.0341 197.294 28.7213 197.155 28.4201C196.958 27.9964 196.174 27.6886 195.713 27.8475C195.261 28.003 194.938 28.2678 194.765 28.7296C194.444 29.5819 194.068 30.4143 193.722 31.2584C193.377 32.1024 193.046 32.9514 192.7 33.7954C192.36 34.6279 192.012 35.457 191.666 36.2878C191.321 37.1186 190.977 37.9494 190.634 38.7819C190.382 39.3942 190.131 40.0065 189.883 40.6205C189.358 41.9147 188.842 43.2122 188.312 44.5064C187.967 45.3504 187.604 46.1879 187.25 47.0286C186.944 47.7551 186.637 48.48 186.333 49.2065C186.175 49.5855 186.156 49.5954 185.738 49.5276C185.653 49.5144 185.567 49.511 185.48 49.511C184.605 49.5094 183.728 49.5077 182.853 49.5077C182.307 49.5077 181.76 49.5061 181.215 49.5127C181.092 49.5144 180.969 49.5541 180.824 49.5805L180.823 49.5872Z" fill="white"/>
<path d="M81.9574 49.5172C80.8249 49.5172 79.7217 49.5155 78.6185 49.5172C78.0022 49.5172 77.3842 49.5221 76.7678 49.537C76.6004 49.5403 76.4951 49.494 76.4329 49.3451C76.3431 49.1283 76.2395 48.9164 76.1532 48.698C75.8356 47.8887 75.53 47.0761 75.2089 46.2685C74.8014 45.244 74.3733 44.2262 73.971 43.2001C73.3029 41.4906 72.6555 39.7744 71.9856 38.0664C71.6732 37.2704 71.3244 36.4876 71.0068 35.6915C70.7012 34.922 70.4215 34.1441 70.1211 33.3729C69.6895 32.2658 69.251 31.1602 68.8142 30.0547C68.6019 29.5152 68.393 28.9757 68.1685 28.4411C67.9614 27.9512 67.2155 27.6798 66.6596 27.8834C66.2349 28.039 65.9328 28.3153 65.7688 28.7274C65.4494 29.5235 65.13 30.3179 64.8055 31.1106C64.3082 32.327 63.8024 33.5384 63.3052 34.7548C62.7355 36.15 62.1778 37.5501 61.5995 38.9436C60.8899 40.6565 60.1597 42.3611 59.4501 44.0723C59.1169 44.8766 58.8148 45.6925 58.4902 46.5002C58.1501 47.3459 57.7962 48.1849 57.4526 49.029C57.2903 49.4278 57.1712 49.5155 56.7189 49.5155C55.3257 49.5155 53.9325 49.5155 52.5375 49.5155C52.3131 49.5155 52.0869 49.5155 51.7969 49.5155C51.8349 49.3748 51.8521 49.2607 51.8953 49.1564C52.118 48.6218 52.3511 48.0906 52.5738 47.556C52.9812 46.5763 53.3869 45.5965 53.7874 44.6135C54.3295 43.2846 54.8647 41.954 55.4051 40.625C55.7279 39.8339 56.0508 39.0429 56.3805 38.2534C56.9606 36.8649 57.551 35.4814 58.1242 34.0928C58.523 33.1247 58.8976 32.1466 59.293 31.1768C59.6607 30.2699 60.0388 29.3662 60.4134 28.4626C60.7829 27.5689 61.1161 26.6587 61.5373 25.7882C62.0898 24.6479 62.9875 23.8204 64.2323 23.3719C65.3959 22.9516 66.6078 22.8572 67.8353 22.897C68.1754 22.9085 68.5138 22.9913 68.8487 23.0575C69.8207 23.2511 70.7115 23.6136 71.4418 24.2772C72.0771 24.8548 72.5087 25.5631 72.8212 26.3426C73.0629 26.945 73.3167 27.5425 73.555 28.1465C73.7984 28.7622 74.0228 29.3828 74.2662 29.9984C74.5252 30.6555 74.7963 31.3059 75.0587 31.9612C75.3418 32.6679 75.6198 33.3746 75.9012 34.0813C76.1273 34.6456 76.3621 35.2083 76.5848 35.7743C77.051 36.9559 77.5119 38.1409 77.978 39.3225C78.4856 40.6085 79.0018 41.8911 79.5094 43.1753C80.0463 44.5357 80.578 45.8978 81.115 47.2598C81.3825 47.94 81.657 48.6202 81.9246 49.3004C81.9523 49.3699 81.9471 49.4493 81.9557 49.5205L81.9574 49.5172Z" fill="white"/>
<path d="M169.106 49.5538C167.414 49.5819 165.796 49.4396 164.111 49.5753C164.094 49.5075 164.044 49.3982 164.04 49.2874C164.028 48.9431 164.035 48.5989 164.035 48.253C164.035 41.7324 164.035 35.2118 164.035 28.6912C164.035 28.6085 164.039 28.5257 164.035 28.443C164.027 28.2642 163.93 28.1633 163.74 28.1534C163.64 28.1484 163.538 28.1501 163.438 28.1501C161.237 28.1501 159.037 28.1517 156.836 28.1534C156.764 28.1534 156.693 28.1567 156.62 28.1517C156.306 28.1319 156.247 28.0839 156.242 27.7744C156.234 27.2928 156.242 26.8095 156.242 26.3263C156.239 25.4574 156.234 24.5902 156.227 23.7214C156.225 23.435 156.259 23.3953 156.57 23.3755C156.684 23.3688 156.8 23.3705 156.915 23.3705C163.388 23.3705 169.858 23.3688 176.331 23.3672C176.994 23.3672 176.98 23.3672 176.982 24.0126C176.982 25.2522 176.997 26.4934 177.013 27.733C177.018 28.1368 177.013 28.1534 176.593 28.1534C174.394 28.1534 172.193 28.1501 169.993 28.1484C169.807 28.1484 169.62 28.155 169.432 28.1583C169.256 28.1616 169.168 28.251 169.164 28.4149C169.161 28.5522 169.17 28.6912 169.17 28.8286C169.17 35.5147 169.17 42.2008 169.166 48.8869C169.166 49.1037 169.126 49.3188 169.104 49.5555L169.106 49.5538Z" fill="white"/>
<path d="M141.764 6.78813C144.737 6.77489 146.666 9.14812 146.653 11.5395C146.641 14.1842 144.266 16.4168 141.338 16.2198C138.936 16.0576 136.585 14.0535 136.777 11.1275C136.923 8.88828 138.869 6.73351 141.762 6.78813H141.764ZM141.823 7.88041L141.813 7.93006C141.726 7.93006 141.64 7.93006 141.554 7.93006C140.274 7.92675 139.275 8.42986 138.617 9.48738C138.356 9.90775 138.085 10.3579 137.987 10.8279C137.83 11.5776 137.959 12.3224 138.311 13.0373C139.054 14.5483 140.756 15.3923 142.527 15.01C143.586 14.7816 144.368 14.2007 144.967 13.3186C145.355 12.746 145.409 12.1337 145.452 11.5098C145.478 11.1457 145.433 10.7567 145.319 10.4092C144.955 9.2921 144.164 8.52419 143.031 8.10879C142.653 7.96978 142.225 7.95323 141.821 7.88041H141.823Z" fill="white"/>
<path d="M133.091 14.9459C132.989 17.4946 130.978 19.6609 127.967 19.6113C125.303 19.5666 123.259 17.5508 123.204 14.9393C123.149 12.2748 125.504 10.1051 128.15 10.1531C130.909 10.2028 132.995 12.2069 133.091 14.9459ZM128.138 11.2719C126.004 11.2487 124.387 12.9335 124.347 14.7556C124.297 17.056 126.189 18.4644 128.131 18.4843C130.258 18.5058 131.95 16.7697 131.917 14.8069C131.885 12.859 130.032 11.2239 128.138 11.2735V11.2719Z" fill="white"/>
<path d="M132.469 7.80204C131.36 7.90795 130.426 7.46442 129.617 6.75278C129.182 6.36883 128.838 5.90213 128.657 5.35433C128.255 4.1462 128.315 2.9629 128.997 1.86069C129.406 1.1987 130.024 0.735308 130.751 0.391073C131.545 0.01374 132.382 -0.0855583 133.223 0.071664C134.33 0.27688 135.228 0.834606 135.884 1.7465C136.536 2.65176 136.723 3.66295 136.512 4.69234C136.336 5.55458 135.887 6.33739 135.141 6.9249C134.368 7.53393 133.51 7.87154 132.465 7.80038L132.469 7.80204ZM132.539 1.15733C131.039 1.02824 129.575 2.3456 129.561 3.89134C129.546 5.40398 130.751 6.68493 132.393 6.71968C134.168 6.75775 135.3 5.42715 135.4 4.10814C135.526 2.44489 133.919 1.02327 132.539 1.15733Z" fill="white"/>
</g>
<defs>
<clipPath id="clip0_4710_2642">
<rect width="210.938" height="50" fill="white"/>
</clipPath>
</defs>
</svg>
