<svg width="72" height="72" viewBox="0 0 72 72" fill="none" xmlns="http://www.w3.org/2000/svg">
<path d="M6 36C6 21.8579 6 14.7868 10.3934 10.3934C14.7868 6 21.8579 6 36 6C50.1421 6 57.2132 6 61.6066 10.3934C66 14.7868 66 21.8579 66 36C66 50.1421 66 57.2132 61.6066 61.6066C57.2132 66 50.1421 66 36 66C21.8579 66 14.7868 66 10.3934 61.6066C6 57.2132 6 50.1421 6 36Z" fill="#747EEF" fill-opacity="0.1" stroke="#747EEF" stroke-width="2"/>
<path fill-rule="evenodd" clip-rule="evenodd" d="M18.5 36C18.5 26.335 26.335 18.5 36 18.5C45.665 18.5 53.5 26.335 53.5 36C53.5 45.665 45.665 53.5 36 53.5C26.335 53.5 18.5 45.665 18.5 36ZM34.6875 23.75C34.6875 23.0251 35.2751 22.4375 36 22.4375C43.4904 22.4375 49.5625 28.5096 49.5625 36C49.5625 43.4904 43.4904 49.5625 36 49.5625C28.5096 49.5625 22.4375 43.4904 22.4375 36C22.4375 35.2751 23.0251 34.6875 23.75 34.6875C24.4749 34.6875 25.0625 35.2751 25.0625 36C25.0625 42.0406 29.9594 46.9375 36 46.9375C42.0406 46.9375 46.9375 42.0406 46.9375 36C46.9375 29.9594 42.0406 25.0625 36 25.0625C35.2751 25.0625 34.6875 24.4749 34.6875 23.75ZM36 27.6875C35.2751 27.6875 34.6875 28.2751 34.6875 29C34.6875 29.7249 35.2751 30.3125 36 30.3125C39.1411 30.3125 41.6875 32.8589 41.6875 36C41.6875 39.1411 39.1411 41.6875 36 41.6875C35.2751 41.6875 34.6875 42.2751 34.6875 43C34.6875 43.7249 35.2751 44.3125 36 44.3125C40.5909 44.3125 44.3125 40.5909 44.3125 36C44.3125 31.4091 40.5909 27.6875 36 27.6875Z" fill="#747EEF"/>
</svg>
