<svg width="72" height="72" viewBox="0 0 72 72" fill="none" xmlns="http://www.w3.org/2000/svg">
<path d="M6 36C6 21.8579 6 14.7868 10.3934 10.3934C14.7868 6 21.8579 6 36 6C50.1421 6 57.2132 6 61.6066 10.3934C66 14.7868 66 21.8579 66 36C66 50.1421 66 57.2132 61.6066 61.6066C57.2132 66 50.1421 66 36 66C21.8579 66 14.7868 66 10.3934 61.6066C6 57.2132 6 50.1421 6 36Z" fill="#747EEF" fill-opacity="0.1" stroke="#747EEF" stroke-width="2"/>
<path d="M50 46.5C50 50.366 43.732 53.5 36 53.5C28.268 53.5 22 50.366 22 46.5V39.4544C22.8789 40.5335 24.1262 41.43 25.5135 42.1237C28.2651 43.4994 31.9744 44.3125 36 44.3125C40.0256 44.3125 43.7349 43.4994 46.4865 42.1237C47.8738 41.43 49.1211 40.5335 50 39.4544V46.5Z" fill="#747EEF"/>
<path d="M36 33.8125C40.0256 33.8125 43.7349 32.9994 46.4865 31.6237C47.8738 30.93 49.1211 30.0335 50 28.9544V36C50 36.875 46.875 38.7844 45.3125 39.7758C42.9971 40.9335 39.7064 41.6875 36 41.6875C32.2936 41.6875 29.0029 40.9335 26.6875 39.7758C24.625 38.7446 22 36.875 22 36V28.9544C22.8789 30.0335 24.1262 30.93 25.5135 31.6237C28.2651 32.9994 31.9744 33.8125 36 33.8125Z" fill="#747EEF"/>
<path d="M45.3125 29.2758C42.9971 30.4335 39.7064 31.1875 36 31.1875C32.2936 31.1875 29.0029 30.4335 26.6875 29.2758C25.753 28.9097 23.608 27.7161 22.1972 25.7825C22.0656 25.6022 22.0075 25.379 22.0345 25.1575C22.074 24.8341 22.1417 24.4306 22.2376 24.209C23.4493 20.9597 29.1501 18.5 36 18.5C42.8499 18.5 48.5507 20.9597 49.7624 24.209C49.8583 24.4306 49.926 24.8341 49.9655 25.1575C49.9925 25.379 49.9344 25.6022 49.8028 25.7825C48.392 27.7161 46.247 28.9097 45.3125 29.2758Z" fill="#747EEF"/>
</svg>
