<svg width="72" height="72" viewBox="0 0 72 72" fill="none" xmlns="http://www.w3.org/2000/svg">
<path d="M6 36C6 21.8579 6 14.7868 10.3934 10.3934C14.7868 6 21.8579 6 36 6C50.1421 6 57.2132 6 61.6066 10.3934C66 14.7868 66 21.8579 66 36C66 50.1421 66 57.2132 61.6066 61.6066C57.2132 66 50.1421 66 36 66C21.8579 66 14.7868 66 10.3934 61.6066C6 57.2132 6 50.1421 6 36Z" fill="#747EEF" fill-opacity="0.1" stroke="#747EEF" stroke-width="2"/>
<path d="M32.5 22H39.5C46.0997 22 49.3995 22 51.4497 24.0503C52.9259 25.5264 53.3393 27.6504 53.455 31.1875H18.545C18.6607 27.6504 19.0741 25.5264 20.5503 24.0503C22.6005 22 25.9003 22 32.5 22Z" fill="#747EEF"/>
<path fill-rule="evenodd" clip-rule="evenodd" d="M53.4991 37.4307L52.7842 36.7158C51.2465 35.1781 48.7535 35.1781 47.2158 36.7158L45.8132 38.1183C45.2537 36.6252 43.8134 35.5625 42.125 35.5625C39.9504 35.5625 38.1875 37.3254 38.1875 39.5V42.5867C37.3302 42.682 36.4982 43.0584 35.8408 43.7158C34.3031 45.2535 34.3031 47.7465 35.8408 49.2842L36.5565 50H32.5C25.9003 50 22.6005 50 20.5503 47.9497C18.5 45.8995 18.5 42.5997 18.5 36C18.5 35.2266 18.5 34.4986 18.5033 33.8125H53.4967C53.5 34.4986 53.5 35.2266 53.5 36C53.5 36.4952 53.5 36.9718 53.4991 37.4307ZM25.5 41.6875C24.7751 41.6875 24.1875 42.2751 24.1875 43C24.1875 43.7249 24.7751 44.3125 25.5 44.3125H32.5C33.2249 44.3125 33.8125 43.7249 33.8125 43C33.8125 42.2751 33.2249 41.6875 32.5 41.6875H25.5Z" fill="#747EEF"/>
<path fill-rule="evenodd" clip-rule="evenodd" d="M42.125 38.1875C42.8499 38.1875 43.4375 38.7751 43.4375 39.5V46.8313L44.6969 45.5719C45.2095 45.0594 46.0405 45.0594 46.5531 45.5719C47.0656 46.0845 47.0656 46.9155 46.5531 47.4281L43.0531 50.9281C42.5405 51.4406 41.7095 51.4406 41.1969 50.9281L37.6969 47.4281C37.1844 46.9155 37.1844 46.0845 37.6969 45.5719C38.2095 45.0594 39.0405 45.0594 39.5531 45.5719L40.8125 46.8313V39.5C40.8125 38.7751 41.4001 38.1875 42.125 38.1875ZM49.0719 38.5719C49.5845 38.0594 50.4155 38.0594 50.9281 38.5719L54.4281 42.0719C54.9406 42.5845 54.9406 43.4155 54.4281 43.9281C53.9155 44.4406 53.0845 44.4406 52.5719 43.9281L51.3125 42.6687V50C51.3125 50.7249 50.7249 51.3125 50 51.3125C49.2751 51.3125 48.6875 50.7249 48.6875 50V42.6687L47.4281 43.9281C46.9155 44.4406 46.0845 44.4406 45.5719 43.9281C45.0594 43.4155 45.0594 42.5845 45.5719 42.0719L49.0719 38.5719Z" fill="#747EEF"/>
</svg>
